# xmcd
#
# Track frame offsets:
#	150
#	20347
#	42206
#	59735
#	78201
#	98057
#	116659
#	138068
#	157301
#
# Disc length: 2454 seconds
#
# Revision: 7
# Processed by: cddbd v1.5.2PL0 Copyright (c) Steve Scherf et al.
# Submitted via: EZCDAudioConverter 3.1.0.1
#
DISCID=70099409
DTITLE=Александр Степаненко - Колыбельные природы
DYEAR=2004
DGENRE=Ambient
TTITLE0=Волшебная дорога
TTITLE1=Таинственный сон
TTITLE2=Лунный блеск
TTITLE3=Сказка ночи
TTITLE4=Вечерняя заря
TTITLE5=Влюбленный жук
TTITLE6=Мокрый лепесток
TTITLE7=Туманный дом
TTITLE8=Ангел странствий
EXTD=
EXTT0=
EXTT1=
EXTT2=
EXTT3=
EXTT4=
EXTT5=
EXTT6=
EXTT7=
EXTT8=
PLAYORDER=
